<svg width="22" height="22" viewBox="0 0 22 22" fill="#000" xmlns="http://www.w3.org/2000/svg">
<path fill-rule="evenodd" clip-rule="evenodd" d="M11 0C11.5523 0 12 0.447715 12 1V3C12 3.55228 11.5523 4 11 4C10.4477 4 10 3.55228 10 3V1C10 0.447715 10.4477 0 11 0ZM3.19289 3.19289C3.58342 2.80237 4.21658 2.80237 4.60711 3.19289L6.00711 4.59289C6.39763 4.98342 6.39763 5.61658 6.00711 6.00711C5.61658 6.39763 4.98342 6.39763 4.59289 6.00711L3.19289 4.60711C2.80237 4.21658 2.80237 3.58342 3.19289 3.19289ZM18.8071 3.19289C19.1976 3.58342 19.1976 4.21658 18.8071 4.60711L17.4071 6.00711C17.0166 6.39763 16.3834 6.39763 15.9929 6.00711C15.6024 5.61658 15.6024 4.98342 15.9929 4.59289L17.3929 3.19289C17.7834 2.80237 18.4166 2.80237 18.8071 3.19289ZM9.25496 8.55975C8.7992 8.88566 8.44326 9.33313 8.22836 9.85195C8.0013 10.4001 7.94189 11.0033 8.05764 11.5853C8.1734 12.1672 8.45912 12.7018 8.87868 13.1213C9.29824 13.5409 9.83279 13.8266 10.4147 13.9424C10.9967 14.0581 11.5999 13.9987 12.1481 13.7716C12.6669 13.5567 13.1143 13.2008 13.4402 12.745C13.2956 12.7592 13.1496 12.7652 13.0029 12.7628C12.0093 12.7462 11.0611 12.3441 10.3585 11.6415C9.65586 10.9389 9.25381 9.99067 9.23724 8.99714C9.23479 8.85042 9.24078 8.7044 9.25496 8.55975ZM8.22215 6.84265C9.04439 6.29325 10.0111 6 11 6C11.3984 6 11.7588 6.23649 11.9174 6.60197C12.0759 6.96745 12.0024 7.3922 11.7303 7.68314C11.4059 8.02987 11.229 8.48908 11.237 8.9638C11.2449 9.43851 11.437 9.89157 11.7727 10.2273C12.1084 10.563 12.5615 10.7551 13.0362 10.763C13.5109 10.771 13.9701 10.5941 14.3169 10.2697C14.6078 9.99755 15.0325 9.92405 15.398 10.0826C15.7635 10.2412 16 10.6016 16 11C16 11.9889 15.7068 12.9556 15.1573 13.7779C14.6079 14.6001 13.827 15.241 12.9134 15.6194C11.9998 15.9978 10.9945 16.0969 10.0245 15.9039C9.05464 15.711 8.16373 15.2348 7.46447 14.5355C6.7652 13.8363 6.289 12.9454 6.09607 11.9755C5.90315 11.0055 6.00216 10.0002 6.3806 9.08658C6.75904 8.17295 7.3999 7.39206 8.22215 6.84265ZM0 11C0 10.4477 0.447715 10 1 10H3C3.55228 10 4 10.4477 4 11C4 11.5523 3.55228 12 3 12H1C0.447715 12 0 11.5523 0 11ZM18 11C18 10.4477 18.4477 10 19 10H21C21.5523 10 22 10.4477 22 11C22 11.5523 21.5523 12 21 12H19C18.4477 12 18 11.5523 18 11ZM6.00711 15.9929C6.39763 16.3834 6.39763 17.0166 6.00711 17.4071L4.60711 18.8071C4.21658 19.1976 3.58342 19.1976 3.19289 18.8071C2.80237 18.4166 2.80237 17.7834 3.19289 17.3929L4.59289 15.9929C4.98342 15.6024 5.61658 15.6024 6.00711 15.9929ZM15.9929 15.9929C16.3834 15.6024 17.0166 15.6024 17.4071 15.9929L18.8071 17.3929C19.1976 17.7834 19.1976 18.4166 18.8071 18.8071C18.4166 19.1976 17.7834 19.1976 17.3929 18.8071L15.9929 17.4071C15.6024 17.0166 15.6024 16.3834 15.9929 15.9929ZM11 18C11.5523 18 12 18.4477 12 19V21C12 21.5523 11.5523 22 11 22C10.4477 22 10 21.5523 10 21V19C10 18.4477 10.4477 18 11 18Z" fill="#000"/>
</svg>
